<svg width="45" height="44" viewBox="0 0 45 44" fill="none" xmlns="http://www.w3.org/2000/svg">
    <path d="M25.0385 33C25.0385 33.5021 24.8896 33.9928 24.6107 34.4103C24.3317 34.8277 23.9353 35.1531 23.4714 35.3452C23.0076 35.5374 22.4972 35.5876 22.0048 35.4897C21.5124 35.3917 21.0601 35.15 20.705 34.795C20.35 34.4399 20.1083 33.9876 20.0103 33.4952C19.9124 33.0028 19.9626 32.4924 20.1548 32.0286C20.3469 31.5647 20.6723 31.1683 21.0897 30.8893C21.5072 30.6104 21.9979 30.4615 22.5 30.4615C23.1732 30.4615 23.8189 30.729 24.295 31.205C24.771 31.6811 25.0385 32.3268 25.0385 33ZM22.5 10.1538C17.8335 10.1538 14.0385 13.5702 14.0385 17.7692V18.6154C14.0385 19.0642 14.2168 19.4947 14.5341 19.812C14.8515 20.1294 15.2819 20.3077 15.7308 20.3077C16.1796 20.3077 16.61 20.1294 16.9274 19.812C17.2448 19.4947 17.4231 19.0642 17.4231 18.6154V17.7692C17.4231 15.4423 19.7014 13.5385 22.5 13.5385C25.2987 13.5385 27.5769 15.4423 27.5769 17.7692C27.5769 20.0961 25.2987 22 22.5 22C22.0512 22 21.6207 22.1783 21.3034 22.4957C20.986 22.813 20.8077 23.2435 20.8077 23.6923V25.3846C20.8077 25.8334 20.986 26.2639 21.3034 26.5813C21.6207 26.8986 22.0512 27.0769 22.5 27.0769C22.9488 27.0769 23.3793 26.8986 23.6966 26.5813C24.014 26.2639 24.1923 25.8334 24.1923 25.3846V25.2323C28.0508 24.5236 30.9615 21.4458 30.9615 17.7692C30.9615 13.5702 27.1665 10.1538 22.5 10.1538ZM44.5 22C44.5 26.3512 43.2097 30.6047 40.7923 34.2225C38.3749 37.8404 34.939 40.6602 30.919 42.3253C26.8991 43.9905 22.4756 44.4261 18.208 43.5773C13.9404 42.7284 10.0204 40.6331 6.94366 37.5563C3.8669 34.4796 1.77161 30.5596 0.922734 26.292C0.0738589 22.0244 0.509532 17.6009 2.17466 13.581C3.83979 9.56099 6.65958 6.12506 10.2775 3.70767C13.8953 1.29028 18.1488 0 22.5 0C28.3329 0.00615962 33.9251 2.32599 38.0495 6.45045C42.174 10.5749 44.4938 16.1671 44.5 22ZM41.1154 22C41.1154 18.3182 40.0236 14.7191 37.9781 11.6578C35.9326 8.59656 33.0253 6.21058 29.6238 4.80163C26.2223 3.39267 22.4794 3.02403 18.8683 3.7423C15.2573 4.46058 11.9404 6.23353 9.33694 8.83693C6.73354 11.4403 4.96059 14.7573 4.24231 18.3683C3.52403 21.9793 3.89268 25.7223 5.30164 29.1238C6.71059 32.5253 9.09657 35.4326 12.1579 37.4781C15.2191 39.5236 18.8182 40.6154 22.5 40.6154C27.4354 40.6098 32.167 38.6467 35.6569 35.1569C39.1467 31.667 41.1098 26.9354 41.1154 22Z" fill="#619B9B"/>
</svg>
