<svg viewBox="0 0 300 300" fill="none" xmlns="http://www.w3.org/2000/svg">
    <path d="M254.997 34.0027C253.023 31.9978 250.543 30.5639 247.821 29.8524C245.098 29.141 242.234 29.1786 239.531 29.9612H239.407L22.7362 95.6974C19.6485 96.5819 16.9035 98.3862 14.867 100.87C12.8305 103.354 11.599 106.399 11.3366 109.6C11.0743 112.801 11.7935 116.006 13.3984 118.788C15.0033 121.571 17.4178 123.798 20.3203 125.173L116.966 170.95C117.432 171.179 117.809 171.556 118.038 172.023L163.827 268.68C165.091 271.386 167.103 273.674 169.625 275.275C172.148 276.875 175.075 277.72 178.062 277.711C178.514 277.711 178.977 277.711 179.428 277.654C182.628 277.403 185.674 276.176 188.155 274.139C190.636 272.102 192.433 269.354 193.303 266.264L259.005 49.5929V49.4687C259.792 46.7688 259.835 43.9065 259.129 41.1842C258.424 38.4619 256.996 35.9807 254.997 34.0027ZM245.966 45.7433L180.32 262.392V262.516C180.214 262.969 179.962 263.374 179.603 263.67C179.244 263.966 178.798 264.135 178.333 264.153C177.867 264.223 177.391 264.134 176.981 263.901C176.572 263.667 176.253 263.303 176.076 262.866L130.919 167.631L185.378 113.173C186.649 111.902 187.363 110.178 187.363 108.381C187.363 106.583 186.649 104.859 185.378 103.588C184.107 102.317 182.383 101.603 180.586 101.603C178.788 101.603 177.064 102.317 175.793 103.588L121.38 158.047L26.1342 112.891C25.7157 112.696 25.3671 112.377 25.1353 111.978C24.9035 111.578 24.7996 111.118 24.8378 110.658C24.8759 110.198 25.0542 109.76 25.3486 109.404C25.6429 109.049 26.0393 108.792 26.4841 108.669H26.6083L243.257 42.9888C243.637 42.8819 244.04 42.88 244.421 42.9833C244.803 43.0867 245.15 43.2914 245.424 43.5758C245.703 43.8545 245.903 44.2011 246.006 44.5814C246.109 44.9616 246.111 45.3622 246.011 45.7433H245.966Z" fill="#619B9B"/>
</svg>