<svg width="100" height="100" viewBox="0 0 100 100" fill="none" xmlns="http://www.w3.org/2000/svg">
    <circle cx="50" cy="50" r="50" fill="#619B9B"/>
    <path d="M74.8426 29.4376C74.8426 29.4376 74.8426 29.4644 74.8426 29.4778L59.2533 80.9003C59.0173 81.7355 58.5316 82.4785 57.8613 83.0297C57.191 83.5809 56.3682 83.9139 55.5033 83.9839C55.38 83.9946 55.2568 84 55.1336 84C54.3231 84.0025 53.5287 83.773 52.8443 83.3387C52.1599 82.9043 51.614 82.2832 51.2711 81.5486L41.7059 61.3509C41.6115 61.1511 41.5811 60.927 41.619 60.7092C41.6569 60.4915 41.7611 60.2908 41.9175 60.1346L57.255 44.7915C57.6399 44.3863 57.8514 43.8467 57.8442 43.2878C57.837 42.7289 57.6119 42.1949 57.2167 41.7997C56.8216 41.4045 56.2877 41.1793 55.7289 41.1721C55.1702 41.165 54.6307 41.3764 54.2256 41.7614L38.8639 57.1019C38.7078 57.2583 38.5071 57.3626 38.2894 57.4005C38.0717 57.4384 37.8476 57.408 37.6478 57.3135L17.5585 47.7947C16.7695 47.4332 16.1055 46.8456 15.6506 46.1064C15.1957 45.3671 14.9704 44.5095 15.0031 43.6421C15.0468 42.7506 15.3694 41.8954 15.9256 41.1973C16.4817 40.4993 17.2431 39.9937 18.1022 39.7521L69.5149 24.1598H69.5551C70.2871 23.9541 71.0606 23.9469 71.7964 24.1389C72.5321 24.3309 73.2035 24.7152 73.7417 25.2524C74.2799 25.7896 74.6655 26.4604 74.8589 27.1958C75.0524 27.9313 75.0468 28.705 74.8426 29.4376Z" fill="white"/>
</svg>
